<?xml version="1.0" encoding="UTF-8"?>
<svg xmlns="http://www.w3.org/2000/svg" xmlns:xlink="http://www.w3.org/1999/xlink" width="1280" height="720" viewBox="0 0 1280 720">
<defs>
<g>
<g id="glyph-0-0">
<path d="M 1.15625 0.046875 C 0.914062 0.046875 0.734375 0.0195312 0.609375 -0.03125 C 0.484375 -0.0820312 0.394531 -0.144531 0.34375 -0.21875 C 0.289062 -0.289062 0.265625 -0.359375 0.265625 -0.421875 C 0.265625 -0.515625 0.285156 -0.582031 0.328125 -0.625 C 0.378906 -0.675781 0.457031 -0.703125 0.5625 -0.703125 C 0.5625 -0.566406 0.609375 -0.453125 0.703125 -0.359375 C 0.796875 -0.273438 0.9375 -0.234375 1.125 -0.234375 C 1.257812 -0.234375 1.375 -0.253906 1.46875 -0.296875 C 1.570312 -0.347656 1.648438 -0.429688 1.703125 -0.546875 C 1.765625 -0.671875 1.796875 -0.832031 1.796875 -1.03125 C 1.796875 -1.28125 1.726562 -1.460938 1.59375 -1.578125 C 1.46875 -1.703125 1.296875 -1.765625 1.078125 -1.765625 C 0.921875 -1.765625 0.800781 -1.753906 0.71875 -1.734375 C 0.632812 -1.710938 0.5625 -1.6875 0.5 -1.65625 L 0.390625 -1.6875 L 0.546875 -3.375 L 2.125 -3.375 L 2.140625 -2.65625 L 1.9375 -2.65625 L 1.921875 -2.796875 C 1.910156 -2.859375 1.890625 -2.90625 1.859375 -2.9375 C 1.835938 -2.96875 1.773438 -2.984375 1.671875 -2.984375 L 0.75 -2.984375 L 0.671875 -1.953125 C 0.710938 -1.960938 0.78125 -1.976562 0.875 -2 C 0.96875 -2.019531 1.082031 -2.03125 1.21875 -2.03125 C 1.425781 -2.03125 1.609375 -1.988281 1.765625 -1.90625 C 1.929688 -1.832031 2.0625 -1.722656 2.15625 -1.578125 C 2.25 -1.429688 2.296875 -1.25 2.296875 -1.03125 C 2.296875 -0.8125 2.25 -0.617188 2.15625 -0.453125 C 2.070312 -0.296875 1.941406 -0.171875 1.765625 -0.078125 C 1.597656 0.00390625 1.394531 0.046875 1.15625 0.046875 Z "/>
</g>
<g id="glyph-0-1">
<path d="M 1.328125 0.046875 C 1.066406 0.046875 0.851562 -0.0234375 0.6875 -0.171875 C 0.519531 -0.316406 0.398438 -0.519531 0.328125 -0.78125 C 0.253906 -1.039062 0.21875 -1.34375 0.21875 -1.6875 C 0.21875 -2.039062 0.253906 -2.34375 0.328125 -2.59375 C 0.398438 -2.851562 0.519531 -3.054688 0.6875 -3.203125 C 0.851562 -3.347656 1.066406 -3.421875 1.328125 -3.421875 C 1.566406 -3.421875 1.769531 -3.347656 1.9375 -3.203125 C 2.101562 -3.054688 2.222656 -2.851562 2.296875 -2.59375 C 2.378906 -2.34375 2.421875 -2.039062 2.421875 -1.6875 C 2.421875 -1.34375 2.378906 -1.039062 2.296875 -0.78125 C 2.222656 -0.519531 2.101562 -0.316406 1.9375 -0.171875 C 1.769531 -0.0234375 1.566406 0.046875 1.328125 0.046875 Z M 1.328125 -0.203125 C 1.554688 -0.203125 1.710938 -0.332031 1.796875 -0.59375 C 1.890625 -0.851562 1.9375 -1.21875 1.9375 -1.6875 C 1.9375 -2.15625 1.890625 -2.515625 1.796875 -2.765625 C 1.710938 -3.023438 1.554688 -3.15625 1.328125 -3.15625 C 1.097656 -3.15625 0.9375 -3.023438 0.84375 -2.765625 C 0.75 -2.515625 0.703125 -2.15625 0.703125 -1.6875 C 0.703125 -1.21875 0.75 -0.851562 0.84375 -0.59375 C 0.9375 -0.332031 1.097656 -0.203125 1.328125 -0.203125 Z "/>
</g>
</g>
</defs>
<g fill="rgb(100%, 100%, 100%)" fill-opacity="1">
<use xlink:href="#glyph-0-0" x="30" y="25.048828"/>
<use xlink:href="#glyph-0-1" x="33" y="25.048828"/>
</g>
</svg>
