<?xml version="1.0" encoding="utf-8" standalone="no"?>
<!DOCTYPE svg PUBLIC "-//W3C//DTD SVG 1.1//EN"
  "http://www.w3.org/Graphics/SVG/1.1/DTD/svg11.dtd">
<svg xmlns:xlink="http://www.w3.org/1999/xlink" width="795.6pt" height="297.144pt" viewBox="0 0 795.6 297.144" xmlns="http://www.w3.org/2000/svg" version="1.1">
 <metadata>
  <rdf:RDF xmlns:dc="http://purl.org/dc/elements/1.1/" xmlns:cc="http://creativecommons.org/ns#" xmlns:rdf="http://www.w3.org/1999/02/22-rdf-syntax-ns#">
   <cc:Work>
    <dc:type rdf:resource="http://purl.org/dc/dcmitype/StillImage"/>
    <dc:date>2026-10-03T22:45:17.665732</dc:date>
    <dc:format>image/svg+xml</dc:format>
    <dc:creator>
     <cc:Agent>
      <dc:title>Matplotlib v3.11.1, https://matplotlib.org/</dc:title>
     </cc:Agent>
    </dc:creator>
   </cc:Work>
  </rdf:RDF>
 </metadata>
 <defs>
  <style type="text/css">*{stroke-linejoin: round; stroke-linecap: butt}</style>
 </defs>
 <g id="figure_1">
  <g id="patch_1">
   <path d="M 0 297.144 
L 795.6 297.144 
L 795.6 -0 
L 0 -0 
z
" style="fill: #ffffff"/>
  </g>
  <g id="axes_1">
   <g id="patch_2">
    <path d="M 35.1 87.499296 
L 191.34 87.499296 
Q 194.13 87.499296 194.13 84.671856 
L 194.13 25.861104 
Q 194.13 23.033664 191.34 23.033664 
L 35.1 23.033664 
Q 32.31 23.033664 32.31 25.861104 
L 32.31 84.671856 
Q 32.31 87.499296 35.1 87.499296 
z
" clip-path="url(#pb697f6cbc2)" style="fill: #2563eb; fill-opacity: 0.094118; stroke: #2563eb; stroke-width: 2; stroke-linejoin: miter"/>
   </g>
   <g id="patch_3">
    <path d="M 224.82 87.499296 
L 381.06 87.499296 
Q 383.85 87.499296 383.85 84.671856 
L 383.85 25.861104 
Q 383.85 23.033664 381.06 23.033664 
L 224.82 23.033664 
Q 222.03 23.033664 222.03 25.861104 
L 222.03 84.671856 
Q 222.03 87.499296 224.82 87.499296 
z
" clip-path="url(#pb697f6cbc2)" style="fill: #2563eb; fill-opacity: 0.094118; stroke: #2563eb; stroke-width: 2; stroke-linejoin: miter"/>
   </g>
   <g id="patch_4">
    <path d="M 414.54 87.499296 
L 570.78 87.499296 
Q 573.57 87.499296 573.57 84.671856 
L 573.57 25.861104 
Q 573.57 23.033664 570.78 23.033664 
L 414.54 23.033664 
Q 411.75 23.033664 411.75 25.861104 
L 411.75 84.671856 
Q 411.75 87.499296 414.54 87.499296 
z
" clip-path="url(#pb697f6cbc2)" style="fill: #2563eb; fill-opacity: 0.094118; stroke: #2563eb; stroke-width: 2; stroke-linejoin: miter"/>
   </g>
   <g id="patch_5">
    <path d="M 604.26 87.499296 
L 760.5 87.499296 
Q 763.29 87.499296 763.29 84.671856 
L 763.29 25.861104 
Q 763.29 23.033664 760.5 23.033664 
L 604.26 23.033664 
Q 601.47 23.033664 601.47 25.861104 
L 601.47 84.671856 
Q 601.47 87.499296 604.26 87.499296 
z
" clip-path="url(#pb697f6cbc2)" style="fill: #2563eb; fill-opacity: 0.094118; stroke: #2563eb; stroke-width: 2; stroke-linejoin: miter"/>
   </g>
   <g id="patch_6">
    <path d="M 604.26 175.149936 
L 760.5 175.149936 
Q 763.29 175.149936 763.29 172.322496 
L 763.29 113.511744 
Q 763.29 110.684304 760.5 110.684304 
L 604.26 110.684304 
Q 601.47 110.684304 601.47 113.511744 
L 601.47 172.322496 
Q 601.47 175.149936 604.26 175.149936 
z
" clip-path="url(#pb697f6cbc2)" style="fill: #14b8a6; fill-opacity: 0.094118; stroke: #14b8a6; stroke-width: 2; stroke-linejoin: miter"/>
   </g>
   <g id="patch_7">
    <path d="M 319.68 175.149936 
L 475.92 175.149936 
Q 478.71 175.149936 478.71 172.322496 
L 478.71 113.511744 
Q 478.71 110.684304 475.92 110.684304 
L 319.68 110.684304 
Q 316.89 110.684304 316.89 113.511744 
L 316.89 172.322496 
Q 316.89 175.149936 319.68 175.149936 
z
" clip-path="url(#pb697f6cbc2)" style="fill: #14b8a6; fill-opacity: 0.094118; stroke: #14b8a6; stroke-width: 2; stroke-linejoin: miter"/>
   </g>
   <g id="patch_8">
    <path d="M 35.1 175.149936 
L 191.34 175.149936 
Q 194.13 175.149936 194.13 172.322496 
L 194.13 113.511744 
Q 194.13 110.684304 191.34 110.684304 
L 35.1 110.684304 
Q 32.31 110.684304 32.31 113.511744 
L 32.31 172.322496 
Q 32.31 175.149936 35.1 175.149936 
z
" clip-path="url(#pb697f6cbc2)" style="fill: #14b8a6; fill-opacity: 0.094118; stroke: #14b8a6; stroke-width: 2; stroke-linejoin: miter"/>
   </g>
   <g id="patch_9">
    <path d="M 198.922588 55.26648 
Q 208.081792 55.26648 215.004929 55.26648 
" clip-path="url(#pb697f6cbc2)" style="fill: none; stroke: #64748b; stroke-width: 2; stroke-linecap: round"/>
    <path d="M 207.804929 51.66648 
L 215.004929 55.26648 
L 207.804929 58.86648 
z
" clip-path="url(#pb697f6cbc2)" style="fill: #64748b; stroke: #64748b; stroke-width: 2; stroke-linecap: round"/>
   </g>
   <g id="patch_10">
    <path d="M 388.642588 55.26648 
Q 397.801792 55.26648 404.724929 55.26648 
" clip-path="url(#pb697f6cbc2)" style="fill: none; stroke: #64748b; stroke-width: 2; stroke-linecap: round"/>
    <path d="M 397.524929 51.66648 
L 404.724929 55.26648 
L 397.524929 58.86648 
z
" clip-path="url(#pb697f6cbc2)" style="fill: #64748b; stroke: #64748b; stroke-width: 2; stroke-linecap: round"/>
   </g>
   <g id="patch_11">
    <path d="M 578.362588 55.26648 
Q 587.521792 55.26648 594.444929 55.26648 
" clip-path="url(#pb697f6cbc2)" style="fill: none; stroke: #64748b; stroke-width: 2; stroke-linecap: round"/>
    <path d="M 587.244929 51.66648 
L 594.444929 55.26648 
L 587.244929 58.86648 
z
" clip-path="url(#pb697f6cbc2)" style="fill: #64748b; stroke: #64748b; stroke-width: 2; stroke-linecap: round"/>
   </g>
   <g id="patch_12">
    <path d="M 682.38 91.191397 
Q 682.38 99.088134 682.38 104.748803 
" clip-path="url(#pb697f6cbc2)" style="fill: none; stroke: #64748b; stroke-width: 2; stroke-linecap: round"/>
    <path d="M 685.98 97.548803 
L 682.38 104.748803 
L 678.78 97.548803 
z
" clip-path="url(#pb697f6cbc2)" style="fill: #64748b; stroke: #64748b; stroke-width: 2; stroke-linecap: round"/>
   </g>
   <g id="patch_13">
    <path d="M 596.680988 142.91712 
Q 540.090524 142.91712 485.736128 142.91712 
" clip-path="url(#pb697f6cbc2)" style="fill: none; stroke: #64748b; stroke-width: 2; stroke-linecap: round"/>
    <path d="M 492.936128 146.51712 
L 485.736128 142.91712 
L 492.936128 139.31712 
z
" clip-path="url(#pb697f6cbc2)" style="fill: #64748b; stroke: #64748b; stroke-width: 2; stroke-linecap: round"/>
   </g>
   <g id="patch_14">
    <path d="M 312.100988 142.91712 
Q 255.510524 142.91712 201.156128 142.91712 
" clip-path="url(#pb697f6cbc2)" style="fill: none; stroke: #64748b; stroke-width: 2; stroke-linecap: round"/>
    <path d="M 208.356128 146.51712 
L 201.156128 142.91712 
L 208.356128 139.31712 
z
" clip-path="url(#pb697f6cbc2)" style="fill: #64748b; stroke: #64748b; stroke-width: 2; stroke-linecap: round"/>
   </g>
   <g id="text_1">
    <!-- Rodada 1 -->
    <g style="fill: #172033" transform="translate(75.53 49.501167) scale(0.16 -0.16)">
     <defs>
      <path id="DejaVuSans-35" d="M 2841 2188 
Q 3044 2119 3236 1894 
Q 3428 1669 3622 1275 
L 4263 0 
L 3584 0 
L 2988 1197 
Q 2756 1666 2539 1819 
Q 2322 1972 1947 1972 
L 1259 1972 
L 1259 0 
L 628 0 
L 628 4666 
L 2053 4666 
Q 2853 4666 3247 4331 
Q 3641 3997 3641 3322 
Q 3641 2881 3436 2590 
Q 3231 2300 2841 2188 
z
M 1259 4147 
L 1259 2491 
L 2053 2491 
Q 2509 2491 2742 2702 
Q 2975 2913 2975 3322 
Q 2975 3731 2742 3939 
Q 2509 4147 2053 4147 
L 1259 4147 
z
" transform="scale(0.015625)"/>
      <path id="DejaVuSans-52" d="M 1959 3097 
Q 1497 3097 1228 2736 
Q 959 2375 959 1747 
Q 959 1119 1226 758 
Q 1494 397 1959 397 
Q 2419 397 2687 759 
Q 2956 1122 2956 1747 
Q 2956 2369 2687 2733 
Q 2419 3097 1959 3097 
z
M 1959 3584 
Q 2709 3584 3137 3096 
Q 3566 2609 3566 1747 
Q 3566 888 3137 398 
Q 2709 -91 1959 -91 
Q 1206 -91 779 398 
Q 353 888 353 1747 
Q 353 2609 779 3096 
Q 1206 3584 1959 3584 
z
" transform="scale(0.015625)"/>
      <path id="DejaVuSans-47" d="M 2906 2969 
L 2906 4863 
L 3481 4863 
L 3481 0 
L 2906 0 
L 2906 525 
Q 2725 213 2448 61 
Q 2172 -91 1784 -91 
Q 1150 -91 751 415 
Q 353 922 353 1747 
Q 353 2572 751 3078 
Q 1150 3584 1784 3584 
Q 2172 3584 2448 3432 
Q 2725 3281 2906 2969 
z
M 947 1747 
Q 947 1113 1208 752 
Q 1469 391 1925 391 
Q 2381 391 2643 752 
Q 2906 1113 2906 1747 
Q 2906 2381 2643 2742 
Q 2381 3103 1925 3103 
Q 1469 3103 1208 2742 
Q 947 2381 947 1747 
z
" transform="scale(0.015625)"/>
      <path id="DejaVuSans-44" d="M 2194 1759 
Q 1497 1759 1228 1600 
Q 959 1441 959 1056 
Q 959 750 1161 570 
Q 1363 391 1709 391 
Q 2188 391 2477 730 
Q 2766 1069 2766 1631 
L 2766 1759 
L 2194 1759 
z
M 3341 1997 
L 3341 0 
L 2766 0 
L 2766 531 
Q 2569 213 2275 61 
Q 1981 -91 1556 -91 
Q 1019 -91 701 211 
Q 384 513 384 1019 
Q 384 1609 779 1909 
Q 1175 2209 1959 2209 
L 2766 2209 
L 2766 2266 
Q 2766 2663 2505 2880 
Q 2244 3097 1772 3097 
Q 1472 3097 1187 3025 
Q 903 2953 641 2809 
L 641 3341 
Q 956 3463 1253 3523 
Q 1550 3584 1831 3584 
Q 2591 3584 2966 3190 
Q 3341 2797 3341 1997 
z
" transform="scale(0.015625)"/>
      <path id="DejaVuSans-3" transform="scale(0.015625)"/>
      <path id="DejaVuSans-14" d="M 794 531 
L 1825 531 
L 1825 4091 
L 703 3866 
L 703 4441 
L 1819 4666 
L 2450 4666 
L 2450 531 
L 3481 531 
L 3481 0 
L 794 0 
L 794 531 
z
" transform="scale(0.015625)"/>
     </defs>
     <use xlink:href="#DejaVuSans-35"/>
     <use xlink:href="#DejaVuSans-52" transform="translate(65 0)"/>
     <use xlink:href="#DejaVuSans-47" transform="translate(126.1875 0)"/>
     <use xlink:href="#DejaVuSans-44" transform="translate(189.671875 0)"/>
     <use xlink:href="#DejaVuSans-47" transform="translate(250.953125 0)"/>
     <use xlink:href="#DejaVuSans-44" transform="translate(314.4375 0)"/>
     <use xlink:href="#DejaVuSans-3" transform="translate(375.71875 0)"/>
     <use xlink:href="#DejaVuSans-14" transform="translate(407.5 0)"/>
    </g>
    <!-- pseudo-rótulos -->
    <g style="fill: #172033" transform="translate(53.47375 69.345542) scale(0.16 -0.16)">
     <defs>
      <path id="DejaVuSans-53" d="M 1159 525 
L 1159 -1331 
L 581 -1331 
L 581 3500 
L 1159 3500 
L 1159 2969 
Q 1341 3281 1617 3432 
Q 1894 3584 2278 3584 
Q 2916 3584 3314 3078 
Q 3713 2572 3713 1747 
Q 3713 922 3314 415 
Q 2916 -91 2278 -91 
Q 1894 -91 1617 61 
Q 1341 213 1159 525 
z
M 3116 1747 
Q 3116 2381 2855 2742 
Q 2594 3103 2138 3103 
Q 1681 3103 1420 2742 
Q 1159 2381 1159 1747 
Q 1159 1113 1420 752 
Q 1681 391 2138 391 
Q 2594 391 2855 752 
Q 3116 1113 3116 1747 
z
" transform="scale(0.015625)"/>
      <path id="DejaVuSans-56" d="M 2834 3397 
L 2834 2853 
Q 2591 2978 2328 3040 
Q 2066 3103 1784 3103 
Q 1356 3103 1142 2972 
Q 928 2841 928 2578 
Q 928 2378 1081 2264 
Q 1234 2150 1697 2047 
L 1894 2003 
Q 2506 1872 2764 1633 
Q 3022 1394 3022 966 
Q 3022 478 2636 193 
Q 2250 -91 1575 -91 
Q 1294 -91 989 -36 
Q 684 19 347 128 
L 347 722 
Q 666 556 975 473 
Q 1284 391 1588 391 
Q 1994 391 2212 530 
Q 2431 669 2431 922 
Q 2431 1156 2273 1281 
Q 2116 1406 1581 1522 
L 1381 1569 
Q 847 1681 609 1914 
Q 372 2147 372 2553 
Q 372 3047 722 3315 
Q 1072 3584 1716 3584 
Q 2034 3584 2315 3537 
Q 2597 3491 2834 3397 
z
" transform="scale(0.015625)"/>
      <path id="DejaVuSans-48" d="M 3597 1894 
L 3597 1613 
L 953 1613 
Q 991 1019 1311 708 
Q 1631 397 2203 397 
Q 2534 397 2845 478 
Q 3156 559 3463 722 
L 3463 178 
Q 3153 47 2828 -22 
Q 2503 -91 2169 -91 
Q 1331 -91 842 396 
Q 353 884 353 1716 
Q 353 2575 817 3079 
Q 1281 3584 2069 3584 
Q 2775 3584 3186 3129 
Q 3597 2675 3597 1894 
z
M 3022 2063 
Q 3016 2534 2758 2815 
Q 2500 3097 2075 3097 
Q 1594 3097 1305 2825 
Q 1016 2553 972 2059 
L 3022 2063 
z
" transform="scale(0.015625)"/>
      <path id="DejaVuSans-58" d="M 544 1381 
L 544 3500 
L 1119 3500 
L 1119 1403 
Q 1119 906 1312 657 
Q 1506 409 1894 409 
Q 2359 409 2629 706 
Q 2900 1003 2900 1516 
L 2900 3500 
L 3475 3500 
L 3475 0 
L 2900 0 
L 2900 538 
Q 2691 219 2414 64 
Q 2138 -91 1772 -91 
Q 1169 -91 856 284 
Q 544 659 544 1381 
z
M 1991 3584 
L 1991 3584 
z
" transform="scale(0.015625)"/>
      <path id="DejaVuSans-10" d="M 313 2009 
L 1997 2009 
L 1997 1497 
L 313 1497 
L 313 2009 
z
" transform="scale(0.015625)"/>
      <path id="DejaVuSans-55" d="M 2631 2963 
Q 2534 3019 2420 3045 
Q 2306 3072 2169 3072 
Q 1681 3072 1420 2755 
Q 1159 2438 1159 1844 
L 1159 0 
L 581 0 
L 581 3500 
L 1159 3500 
L 1159 2956 
Q 1341 3275 1631 3429 
Q 1922 3584 2338 3584 
Q 2397 3584 2469 3576 
Q 2541 3569 2628 3553 
L 2631 2963 
z
" transform="scale(0.015625)"/>
      <path id="DejaVuSans-b5" d="M 1959 3097 
Q 1497 3097 1228 2736 
Q 959 2375 959 1747 
Q 959 1119 1226 758 
Q 1494 397 1959 397 
Q 2419 397 2687 759 
Q 2956 1122 2956 1747 
Q 2956 2369 2687 2733 
Q 2419 3097 1959 3097 
z
M 1959 3584 
Q 2709 3584 3137 3096 
Q 3566 2609 3566 1747 
Q 3566 888 3137 398 
Q 2709 -91 1959 -91 
Q 1206 -91 779 398 
Q 353 888 353 1747 
Q 353 2609 779 3096 
Q 1206 3584 1959 3584 
z
M 2393 5119 
L 3015 5119 
L 1997 3944 
L 1518 3944 
L 2393 5119 
z
" transform="scale(0.015625)"/>
      <path id="DejaVuSans-57" d="M 1172 4494 
L 1172 3500 
L 2356 3500 
L 2356 3053 
L 1172 3053 
L 1172 1153 
Q 1172 725 1289 603 
Q 1406 481 1766 481 
L 2356 481 
L 2356 0 
L 1766 0 
Q 1100 0 847 248 
Q 594 497 594 1153 
L 594 3053 
L 172 3053 
L 172 3500 
L 594 3500 
L 594 4494 
L 1172 4494 
z
" transform="scale(0.015625)"/>
      <path id="DejaVuSans-4f" d="M 603 4863 
L 1178 4863 
L 1178 0 
L 603 0 
L 603 4863 
z
" transform="scale(0.015625)"/>
     </defs>
     <use xlink:href="#DejaVuSans-53"/>
     <use xlink:href="#DejaVuSans-56" transform="translate(63.484375 0)"/>
     <use xlink:href="#DejaVuSans-48" transform="translate(115.578125 0)"/>
     <use xlink:href="#DejaVuSans-58" transform="translate(177.109375 0)"/>
     <use xlink:href="#DejaVuSans-47" transform="translate(240.484375 0)"/>
     <use xlink:href="#DejaVuSans-52" transform="translate(303.96875 0)"/>
     <use xlink:href="#DejaVuSans-10" transform="translate(367.015625 0)"/>
     <use xlink:href="#DejaVuSans-55" transform="translate(403.09375 0)"/>
     <use xlink:href="#DejaVuSans-b5" transform="translate(442 0)"/>
     <use xlink:href="#DejaVuSans-57" transform="translate(503.1875 0)"/>
     <use xlink:href="#DejaVuSans-58" transform="translate(542.390625 0)"/>
     <use xlink:href="#DejaVuSans-4f" transform="translate(605.765625 0)"/>
     <use xlink:href="#DejaVuSans-52" transform="translate(633.546875 0)"/>
     <use xlink:href="#DejaVuSans-56" transform="translate(694.734375 0)"/>
    </g>
   </g>
   <g id="text_2">
    <!-- Inferência global -->
    <g style="fill: #172033" transform="translate(236.2 50.141167) scale(0.16 -0.16)">
     <defs>
      <path id="DejaVuSans-2c" d="M 628 4666 
L 1259 4666 
L 1259 0 
L 628 0 
L 628 4666 
z
" transform="scale(0.015625)"/>
      <path id="DejaVuSans-51" d="M 3513 2113 
L 3513 0 
L 2938 0 
L 2938 2094 
Q 2938 2591 2744 2837 
Q 2550 3084 2163 3084 
Q 1697 3084 1428 2787 
Q 1159 2491 1159 1978 
L 1159 0 
L 581 0 
L 581 3500 
L 1159 3500 
L 1159 2956 
Q 1366 3272 1645 3428 
Q 1925 3584 2291 3584 
Q 2894 3584 3203 3211 
Q 3513 2838 3513 2113 
z
" transform="scale(0.015625)"/>
      <path id="DejaVuSans-49" d="M 2375 4863 
L 2375 4384 
L 1825 4384 
Q 1516 4384 1395 4259 
Q 1275 4134 1275 3809 
L 1275 3500 
L 2222 3500 
L 2222 3053 
L 1275 3053 
L 1275 0 
L 697 0 
L 697 3053 
L 147 3053 
L 147 3500 
L 697 3500 
L 697 3744 
Q 697 4328 969 4595 
Q 1241 4863 1831 4863 
L 2375 4863 
z
" transform="scale(0.015625)"/>
      <path id="DejaVuSans-ac" d="M 3597 1894 
L 3597 1613 
L 953 1613 
Q 991 1019 1311 708 
Q 1631 397 2203 397 
Q 2534 397 2845 478 
Q 3156 559 3463 722 
L 3463 178 
Q 3153 47 2828 -22 
Q 2503 -91 2169 -91 
Q 1331 -91 842 396 
Q 353 884 353 1716 
Q 353 2575 817 3079 
Q 1281 3584 2069 3584 
Q 2775 3584 3186 3129 
Q 3597 2675 3597 1894 
z
M 3022 2063 
Q 3016 2534 2758 2815 
Q 2500 3097 2075 3097 
Q 1594 3097 1305 2825 
Q 1016 2553 972 2059 
L 3022 2063 
z
M 1803 5119 
L 2265 5119 
L 3031 3944 
L 2597 3944 
L 2034 4709 
L 1472 3944 
L 1037 3944 
L 1803 5119 
z
" transform="scale(0.015625)"/>
      <path id="DejaVuSans-46" d="M 3122 3366 
L 3122 2828 
Q 2878 2963 2633 3030 
Q 2388 3097 2138 3097 
Q 1578 3097 1268 2742 
Q 959 2388 959 1747 
Q 959 1106 1268 751 
Q 1578 397 2138 397 
Q 2388 397 2633 464 
Q 2878 531 3122 666 
L 3122 134 
Q 2881 22 2623 -34 
Q 2366 -91 2075 -91 
Q 1284 -91 818 406 
Q 353 903 353 1747 
Q 353 2603 823 3093 
Q 1294 3584 2113 3584 
Q 2378 3584 2631 3529 
Q 2884 3475 3122 3366 
z
" transform="scale(0.015625)"/>
      <path id="DejaVuSans-4c" d="M 603 3500 
L 1178 3500 
L 1178 0 
L 603 0 
L 603 3500 
z
M 603 4863 
L 1178 4863 
L 1178 4134 
L 603 4134 
L 603 4863 
z
" transform="scale(0.015625)"/>
      <path id="DejaVuSans-4a" d="M 2906 1791 
Q 2906 2416 2648 2759 
Q 2391 3103 1925 3103 
Q 1463 3103 1205 2759 
Q 947 2416 947 1791 
Q 947 1169 1205 825 
Q 1463 481 1925 481 
Q 2391 481 2648 825 
Q 2906 1169 2906 1791 
z
M 3481 434 
Q 3481 -459 3084 -895 
Q 2688 -1331 1869 -1331 
Q 1566 -1331 1297 -1286 
Q 1028 -1241 775 -1147 
L 775 -588 
Q 1028 -725 1275 -790 
Q 1522 -856 1778 -856 
Q 2344 -856 2625 -561 
Q 2906 -266 2906 331 
L 2906 616 
Q 2728 306 2450 153 
Q 2172 0 1784 0 
Q 1141 0 747 490 
Q 353 981 353 1791 
Q 353 2603 747 3093 
Q 1141 3584 1784 3584 
Q 2172 3584 2450 3431 
Q 2728 3278 2906 2969 
L 2906 3500 
L 3481 3500 
L 3481 434 
z
" transform="scale(0.015625)"/>
      <path id="DejaVuSans-45" d="M 3116 1747 
Q 3116 2381 2855 2742 
Q 2594 3103 2138 3103 
Q 1681 3103 1420 2742 
Q 1159 2381 1159 1747 
Q 1159 1113 1420 752 
Q 1681 391 2138 391 
Q 2594 391 2855 752 
Q 3116 1113 3116 1747 
z
M 1159 2969 
Q 1341 3281 1617 3432 
Q 1894 3584 2278 3584 
Q 2916 3584 3314 3078 
Q 3713 2572 3713 1747 
Q 3713 922 3314 415 
Q 2916 -91 2278 -91 
Q 1894 -91 1617 61 
Q 1341 213 1159 525 
L 1159 0 
L 581 0 
L 581 4863 
L 1159 4863 
L 1159 2969 
z
" transform="scale(0.015625)"/>
     </defs>
     <use xlink:href="#DejaVuSans-2c"/>
     <use xlink:href="#DejaVuSans-51" transform="translate(29.5 0)"/>
     <use xlink:href="#DejaVuSans-49" transform="translate(92.875 0)"/>
     <use xlink:href="#DejaVuSans-48" transform="translate(128.078125 0)"/>
     <use xlink:href="#DejaVuSans-55" transform="translate(189.609375 0)"/>
     <use xlink:href="#DejaVuSans-ac" transform="translate(228.515625 0)"/>
     <use xlink:href="#DejaVuSans-51" transform="translate(290.046875 0)"/>
     <use xlink:href="#DejaVuSans-46" transform="translate(353.421875 0)"/>
     <use xlink:href="#DejaVuSans-4c" transform="translate(408.40625 0)"/>
     <use xlink:href="#DejaVuSans-44" transform="translate(436.1875 0)"/>
     <use xlink:href="#DejaVuSans-3" transform="translate(497.46875 0)"/>
     <use xlink:href="#DejaVuSans-4a" transform="translate(529.25 0)"/>
     <use xlink:href="#DejaVuSans-4f" transform="translate(592.734375 0)"/>
     <use xlink:href="#DejaVuSans-52" transform="translate(620.515625 0)"/>
     <use xlink:href="#DejaVuSans-45" transform="translate(681.703125 0)"/>
     <use xlink:href="#DejaVuSans-44" transform="translate(745.1875 0)"/>
     <use xlink:href="#DejaVuSans-4f" transform="translate(806.46875 0)"/>
    </g>
    <!-- pais previstos -->
    <g style="fill: #172033" transform="translate(247.58875 69.345542) scale(0.16 -0.16)">
     <defs>
      <path id="DejaVuSans-59" d="M 191 3500 
L 800 3500 
L 1894 563 
L 2988 3500 
L 3597 3500 
L 2284 0 
L 1503 0 
L 191 3500 
z
" transform="scale(0.015625)"/>
     </defs>
     <use xlink:href="#DejaVuSans-53"/>
     <use xlink:href="#DejaVuSans-44" transform="translate(63.484375 0)"/>
     <use xlink:href="#DejaVuSans-4c" transform="translate(124.765625 0)"/>
     <use xlink:href="#DejaVuSans-56" transform="translate(152.546875 0)"/>
     <use xlink:href="#DejaVuSans-3" transform="translate(204.640625 0)"/>
     <use xlink:href="#DejaVuSans-53" transform="translate(236.421875 0)"/>
     <use xlink:href="#DejaVuSans-55" transform="translate(299.90625 0)"/>
     <use xlink:href="#DejaVuSans-48" transform="translate(338.8125 0)"/>
     <use xlink:href="#DejaVuSans-59" transform="translate(400.34375 0)"/>
     <use xlink:href="#DejaVuSans-4c" transform="translate(459.53125 0)"/>
     <use xlink:href="#DejaVuSans-56" transform="translate(487.3125 0)"/>
     <use xlink:href="#DejaVuSans-57" transform="translate(539.40625 0)"/>
     <use xlink:href="#DejaVuSans-52" transform="translate(578.609375 0)"/>
     <use xlink:href="#DejaVuSans-56" transform="translate(639.796875 0)"/>
    </g>
   </g>
   <g id="text_3">
    <!-- Recortar / ampliar -->
    <g style="fill: #172033" transform="translate(420.4375 49.821792) scale(0.16 -0.16)">
     <defs>
      <path id="DejaVuSans-12" d="M 1625 4666 
L 2156 4666 
L 531 -594 
L 0 -594 
L 1625 4666 
z
" transform="scale(0.015625)"/>
      <path id="DejaVuSans-50" d="M 3328 2828 
Q 3544 3216 3844 3400 
Q 4144 3584 4550 3584 
Q 5097 3584 5394 3201 
Q 5691 2819 5691 2113 
L 5691 0 
L 5113 0 
L 5113 2094 
Q 5113 2597 4934 2840 
Q 4756 3084 4391 3084 
Q 3944 3084 3684 2787 
Q 3425 2491 3425 1978 
L 3425 0 
L 2847 0 
L 2847 2094 
Q 2847 2600 2669 2842 
Q 2491 3084 2119 3084 
Q 1678 3084 1418 2786 
Q 1159 2488 1159 1978 
L 1159 0 
L 581 0 
L 581 3500 
L 1159 3500 
L 1159 2956 
Q 1356 3278 1631 3431 
Q 1906 3584 2284 3584 
Q 2666 3584 2933 3390 
Q 3200 3197 3328 2828 
z
" transform="scale(0.015625)"/>
     </defs>
     <use xlink:href="#DejaVuSans-35"/>
     <use xlink:href="#DejaVuSans-48" transform="translate(65 0)"/>
     <use xlink:href="#DejaVuSans-46" transform="translate(126.53125 0)"/>
     <use xlink:href="#DejaVuSans-52" transform="translate(181.515625 0)"/>
     <use xlink:href="#DejaVuSans-55" transform="translate(242.703125 0)"/>
     <use xlink:href="#DejaVuSans-57" transform="translate(283.8125 0)"/>
     <use xlink:href="#DejaVuSans-44" transform="translate(323.015625 0)"/>
     <use xlink:href="#DejaVuSans-55" transform="translate(384.296875 0)"/>
     <use xlink:href="#DejaVuSans-3" transform="translate(425.40625 0)"/>
     <use xlink:href="#DejaVuSans-12" transform="translate(457.1875 0)"/>
     <use xlink:href="#DejaVuSans-3" transform="translate(490.875 0)"/>
     <use xlink:href="#DejaVuSans-44" transform="translate(522.65625 0)"/>
     <use xlink:href="#DejaVuSans-50" transform="translate(583.9375 0)"/>
     <use xlink:href="#DejaVuSans-53" transform="translate(681.34375 0)"/>
     <use xlink:href="#DejaVuSans-4f" transform="translate(744.828125 0)"/>
     <use xlink:href="#DejaVuSans-4c" transform="translate(772.609375 0)"/>
     <use xlink:href="#DejaVuSans-44" transform="translate(800.390625 0)"/>
     <use xlink:href="#DejaVuSans-55" transform="translate(861.671875 0)"/>
    </g>
    <!-- 1024 × 1024 -->
    <g style="fill: #172033" transform="translate(440.15125 69.024917) scale(0.16 -0.16)">
     <defs>
      <path id="DejaVuSans-13" d="M 2034 4250 
Q 1547 4250 1301 3770 
Q 1056 3291 1056 2328 
Q 1056 1369 1301 889 
Q 1547 409 2034 409 
Q 2525 409 2770 889 
Q 3016 1369 3016 2328 
Q 3016 3291 2770 3770 
Q 2525 4250 2034 4250 
z
M 2034 4750 
Q 2819 4750 3233 4129 
Q 3647 3509 3647 2328 
Q 3647 1150 3233 529 
Q 2819 -91 2034 -91 
Q 1250 -91 836 529 
Q 422 1150 422 2328 
Q 422 3509 836 4129 
Q 1250 4750 2034 4750 
z
" transform="scale(0.015625)"/>
      <path id="DejaVuSans-15" d="M 1228 531 
L 3431 531 
L 3431 0 
L 469 0 
L 469 531 
Q 828 903 1448 1529 
Q 2069 2156 2228 2338 
Q 2531 2678 2651 2914 
Q 2772 3150 2772 3378 
Q 2772 3750 2511 3984 
Q 2250 4219 1831 4219 
Q 1534 4219 1204 4116 
Q 875 4013 500 3803 
L 500 4441 
Q 881 4594 1212 4672 
Q 1544 4750 1819 4750 
Q 2544 4750 2975 4387 
Q 3406 4025 3406 3419 
Q 3406 3131 3298 2873 
Q 3191 2616 2906 2266 
Q 2828 2175 2409 1742 
Q 1991 1309 1228 531 
z
" transform="scale(0.015625)"/>
      <path id="DejaVuSans-17" d="M 2419 4116 
L 825 1625 
L 2419 1625 
L 2419 4116 
z
M 2253 4666 
L 3047 4666 
L 3047 1625 
L 3713 1625 
L 3713 1100 
L 3047 1100 
L 3047 0 
L 2419 0 
L 2419 1100 
L 313 1100 
L 313 1709 
L 2253 4666 
z
" transform="scale(0.015625)"/>
      <path id="DejaVuSans-99" d="M 4488 3438 
L 3059 2003 
L 4488 575 
L 4116 197 
L 2681 1631 
L 1247 197 
L 878 575 
L 2303 2003 
L 878 3438 
L 1247 3816 
L 2681 2381 
L 4116 3816 
L 4488 3438 
z
" transform="scale(0.015625)"/>
     </defs>
     <use xlink:href="#DejaVuSans-14"/>
     <use xlink:href="#DejaVuSans-13" transform="translate(63.625 0)"/>
     <use xlink:href="#DejaVuSans-15" transform="translate(127.25 0)"/>
     <use xlink:href="#DejaVuSans-17" transform="translate(190.875 0)"/>
     <use xlink:href="#DejaVuSans-3" transform="translate(254.5 0)"/>
     <use xlink:href="#DejaVuSans-99" transform="translate(286.28125 0)"/>
     <use xlink:href="#DejaVuSans-3" transform="translate(370.078125 0)"/>
     <use xlink:href="#DejaVuSans-14" transform="translate(401.859375 0)"/>
     <use xlink:href="#DejaVuSans-13" transform="translate(465.484375 0)"/>
     <use xlink:href="#DejaVuSans-15" transform="translate(529.109375 0)"/>
     <use xlink:href="#DejaVuSans-17" transform="translate(592.734375 0)"/>
    </g>
   </g>
   <g id="text_4">
    <!-- Predizer filhos -->
    <g style="fill: #172033" transform="translate(626.01375 59.423355) scale(0.16 -0.16)">
     <defs>
      <path id="DejaVuSans-33" d="M 1259 4147 
L 1259 2394 
L 2053 2394 
Q 2494 2394 2734 2622 
Q 2975 2850 2975 3272 
Q 2975 3691 2734 3919 
Q 2494 4147 2053 4147 
L 1259 4147 
z
M 628 4666 
L 2053 4666 
Q 2838 4666 3239 4311 
Q 3641 3956 3641 3272 
Q 3641 2581 3239 2228 
Q 2838 1875 2053 1875 
L 1259 1875 
L 1259 0 
L 628 0 
L 628 4666 
z
" transform="scale(0.015625)"/>
      <path id="DejaVuSans-5d" d="M 353 3500 
L 3084 3500 
L 3084 2975 
L 922 459 
L 3084 459 
L 3084 0 
L 275 0 
L 275 525 
L 2438 3041 
L 353 3041 
L 353 3500 
z
" transform="scale(0.015625)"/>
      <path id="DejaVuSans-13af" d="M 3431 3500 
L 3431 0 
L 2853 0 
L 2853 3053 
L 1275 3053 
L 1275 0 
L 697 0 
L 697 3053 
L 147 3053 
L 147 3500 
L 697 3500 
L 697 3744 
Q 697 4316 967 4589 
Q 1238 4863 1797 4863 
L 2375 4863 
L 2375 4384 
L 1825 4384 
Q 1516 4384 1395 4259 
Q 1275 4134 1275 3809 
L 1275 3500 
L 3431 3500 
z
M 2853 4856 
L 3431 4856 
L 3431 4128 
L 2853 4128 
L 2853 4856 
z
" transform="scale(0.015625)"/>
      <path id="DejaVuSans-4b" d="M 3513 2113 
L 3513 0 
L 2938 0 
L 2938 2094 
Q 2938 2591 2744 2837 
Q 2550 3084 2163 3084 
Q 1697 3084 1428 2787 
Q 1159 2491 1159 1978 
L 1159 0 
L 581 0 
L 581 4863 
L 1159 4863 
L 1159 2956 
Q 1366 3272 1645 3428 
Q 1925 3584 2291 3584 
Q 2894 3584 3203 3211 
Q 3513 2838 3513 2113 
z
" transform="scale(0.015625)"/>
     </defs>
     <use xlink:href="#DejaVuSans-33"/>
     <use xlink:href="#DejaVuSans-55" transform="translate(58.546875 0)"/>
     <use xlink:href="#DejaVuSans-48" transform="translate(97.453125 0)"/>
     <use xlink:href="#DejaVuSans-47" transform="translate(158.984375 0)"/>
     <use xlink:href="#DejaVuSans-4c" transform="translate(222.46875 0)"/>
     <use xlink:href="#DejaVuSans-5d" transform="translate(250.25 0)"/>
     <use xlink:href="#DejaVuSans-48" transform="translate(302.734375 0)"/>
     <use xlink:href="#DejaVuSans-55" transform="translate(364.265625 0)"/>
     <use xlink:href="#DejaVuSans-3" transform="translate(405.375 0)"/>
     <use xlink:href="#DejaVuSans-13af" transform="translate(437.15625 0)"/>
     <use xlink:href="#DejaVuSans-4f" transform="translate(500.140625 0)"/>
     <use xlink:href="#DejaVuSans-4b" transform="translate(527.921875 0)"/>
     <use xlink:href="#DejaVuSans-52" transform="translate(591.296875 0)"/>
     <use xlink:href="#DejaVuSans-56" transform="translate(652.484375 0)"/>
    </g>
   </g>
   <g id="text_5">
    <!-- Checar contenção -->
    <g style="fill: #172033" transform="translate(609.98 137.608682) scale(0.16 -0.16)">
     <defs>
      <path id="DejaVuSans-26" d="M 4122 4306 
L 4122 3641 
Q 3803 3938 3442 4084 
Q 3081 4231 2675 4231 
Q 1875 4231 1450 3742 
Q 1025 3253 1025 2328 
Q 1025 1406 1450 917 
Q 1875 428 2675 428 
Q 3081 428 3442 575 
Q 3803 722 4122 1019 
L 4122 359 
Q 3791 134 3420 21 
Q 3050 -91 2638 -91 
Q 1578 -91 968 557 
Q 359 1206 359 2328 
Q 359 3453 968 4101 
Q 1578 4750 2638 4750 
Q 3056 4750 3426 4639 
Q 3797 4528 4122 4306 
z
" transform="scale(0.015625)"/>
      <path id="DejaVuSans-a9" d="M 3122 3366 
L 3122 2828 
Q 2878 2963 2633 3030 
Q 2388 3097 2138 3097 
Q 1578 3097 1268 2742 
Q 959 2388 959 1747 
Q 959 1106 1268 751 
Q 1578 397 2138 397 
Q 2388 397 2633 464 
Q 2878 531 3122 666 
L 3122 134 
Q 2881 22 2623 -34 
Q 2366 -91 2075 -91 
Q 1284 -91 818 406 
Q 353 903 353 1747 
Q 353 2603 823 3093 
Q 1294 3584 2113 3584 
Q 2378 3584 2631 3529 
Q 2884 3475 3122 3366 
z
M 2310 0 
Q 2481 -194 2565 -358 
Q 2650 -522 2650 -672 
Q 2650 -950 2462 -1092 
Q 2275 -1234 1906 -1234 
Q 1763 -1234 1627 -1215 
Q 1491 -1197 1356 -1159 
L 1356 -750 
Q 1463 -803 1578 -826 
Q 1694 -850 1841 -850 
Q 2025 -850 2119 -775 
Q 2213 -700 2213 -556 
Q 2213 -463 2145 -327 
Q 2078 -191 1938 0 
L 2310 0 
z
" transform="scale(0.015625)"/>
      <path id="DejaVuSans-a5" d="M 2194 1759 
Q 1497 1759 1228 1600 
Q 959 1441 959 1056 
Q 959 750 1161 570 
Q 1363 391 1709 391 
Q 2188 391 2477 730 
Q 2766 1069 2766 1631 
L 2766 1759 
L 2194 1759 
z
M 3341 1997 
L 3341 0 
L 2766 0 
L 2766 531 
Q 2569 213 2275 61 
Q 1981 -91 1556 -91 
Q 1019 -91 701 211 
Q 384 513 384 1019 
Q 384 1609 779 1909 
Q 1175 2209 1959 2209 
L 2766 2209 
L 2766 2266 
Q 2766 2663 2505 2880 
Q 2244 3097 1772 3097 
Q 1472 3097 1187 3025 
Q 903 2953 641 2809 
L 641 3341 
Q 956 3463 1253 3523 
Q 1550 3584 1831 3584 
Q 2591 3584 2966 3190 
Q 3341 2797 3341 1997 
z
M 1844 4281 
L 1665 4453 
Q 1597 4516 1545 4545 
Q 1494 4575 1453 4575 
Q 1334 4575 1278 4461 
Q 1222 4347 1215 4091 
L 825 4091 
Q 831 4513 990 4742 
Q 1150 4972 1434 4972 
Q 1553 4972 1653 4928 
Q 1753 4884 1869 4781 
L 2047 4609 
Q 2115 4547 2167 4517 
Q 2219 4488 2259 4488 
Q 2378 4488 2434 4602 
Q 2490 4716 2497 4972 
L 2887 4972 
Q 2881 4550 2721 4320 
Q 2562 4091 2278 4091 
Q 2159 4091 2059 4134 
Q 1959 4178 1844 4281 
z
" transform="scale(0.015625)"/>
     </defs>
     <use xlink:href="#DejaVuSans-26"/>
     <use xlink:href="#DejaVuSans-4b" transform="translate(69.828125 0)"/>
     <use xlink:href="#DejaVuSans-48" transform="translate(133.203125 0)"/>
     <use xlink:href="#DejaVuSans-46" transform="translate(194.734375 0)"/>
     <use xlink:href="#DejaVuSans-44" transform="translate(249.71875 0)"/>
     <use xlink:href="#DejaVuSans-55" transform="translate(311 0)"/>
     <use xlink:href="#DejaVuSans-3" transform="translate(352.109375 0)"/>
     <use xlink:href="#DejaVuSans-46" transform="translate(383.890625 0)"/>
     <use xlink:href="#DejaVuSans-52" transform="translate(438.875 0)"/>
     <use xlink:href="#DejaVuSans-51" transform="translate(500.0625 0)"/>
     <use xlink:href="#DejaVuSans-57" transform="translate(563.4375 0)"/>
     <use xlink:href="#DejaVuSans-48" transform="translate(602.640625 0)"/>
     <use xlink:href="#DejaVuSans-51" transform="translate(664.171875 0)"/>
     <use xlink:href="#DejaVuSans-a9" transform="translate(727.546875 0)"/>
     <use xlink:href="#DejaVuSans-a5" transform="translate(782.53125 0)"/>
     <use xlink:href="#DejaVuSans-52" transform="translate(843.8125 0)"/>
    </g>
    <!-- ≥ 0,70 -->
    <g style="fill: #172033" transform="translate(655.32125 156.811807) scale(0.16 -0.16)">
     <defs>
      <path id="DejaVuSans-cef" d="M 678 3175 
L 678 3725 
L 4684 2578 
L 4684 2047 
L 678 897 
L 678 1453 
L 3681 2309 
L 678 3175 
z
M 4684 531 
L 4684 0 
L 678 0 
L 678 531 
L 4684 531 
z
" transform="scale(0.015625)"/>
      <path id="DejaVuSans-f" d="M 750 794 
L 1409 794 
L 1409 256 
L 897 -744 
L 494 -744 
L 750 256 
L 750 794 
z
" transform="scale(0.015625)"/>
      <path id="DejaVuSans-1a" d="M 525 4666 
L 3525 4666 
L 3525 4397 
L 1831 0 
L 1172 0 
L 2766 4134 
L 525 4134 
L 525 4666 
z
" transform="scale(0.015625)"/>
     </defs>
     <use xlink:href="#DejaVuSans-cef"/>
     <use xlink:href="#DejaVuSans-3" transform="translate(83.796875 0)"/>
     <use xlink:href="#DejaVuSans-13" transform="translate(115.578125 0)"/>
     <use xlink:href="#DejaVuSans-f" transform="translate(179.203125 0)"/>
     <use xlink:href="#DejaVuSans-1a" transform="translate(210.984375 0)"/>
     <use xlink:href="#DejaVuSans-13" transform="translate(274.609375 0)"/>
    </g>
   </g>
   <g id="text_6">
    <!-- Mesclar rótulos -->
    <g style="fill: #172033" transform="translate(336.95375 137.792432) scale(0.16 -0.16)">
     <defs>
      <path id="DejaVuSans-30" d="M 628 4666 
L 1569 4666 
L 2759 1491 
L 3956 4666 
L 4897 4666 
L 4897 0 
L 4281 0 
L 4281 4097 
L 3078 897 
L 2444 897 
L 1241 4097 
L 1241 0 
L 628 0 
L 628 4666 
z
" transform="scale(0.015625)"/>
     </defs>
     <use xlink:href="#DejaVuSans-30"/>
     <use xlink:href="#DejaVuSans-48" transform="translate(86.28125 0)"/>
     <use xlink:href="#DejaVuSans-56" transform="translate(147.8125 0)"/>
     <use xlink:href="#DejaVuSans-46" transform="translate(199.90625 0)"/>
     <use xlink:href="#DejaVuSans-4f" transform="translate(254.890625 0)"/>
     <use xlink:href="#DejaVuSans-44" transform="translate(282.671875 0)"/>
     <use xlink:href="#DejaVuSans-55" transform="translate(343.953125 0)"/>
     <use xlink:href="#DejaVuSans-3" transform="translate(385.0625 0)"/>
     <use xlink:href="#DejaVuSans-55" transform="translate(416.84375 0)"/>
     <use xlink:href="#DejaVuSans-b5" transform="translate(455.75 0)"/>
     <use xlink:href="#DejaVuSans-57" transform="translate(516.9375 0)"/>
     <use xlink:href="#DejaVuSans-58" transform="translate(556.140625 0)"/>
     <use xlink:href="#DejaVuSans-4f" transform="translate(619.515625 0)"/>
     <use xlink:href="#DejaVuSans-52" transform="translate(647.296875 0)"/>
     <use xlink:href="#DejaVuSans-56" transform="translate(708.484375 0)"/>
    </g>
    <!-- IoU &gt; 0,50 -->
    <g style="fill: #172033" transform="translate(355.08875 156.995557) scale(0.16 -0.16)">
     <defs>
      <path id="DejaVuSans-38" d="M 556 4666 
L 1191 4666 
L 1191 1831 
Q 1191 1081 1462 751 
Q 1734 422 2344 422 
Q 2950 422 3222 751 
Q 3494 1081 3494 1831 
L 3494 4666 
L 4128 4666 
L 4128 1753 
Q 4128 841 3676 375 
Q 3225 -91 2344 -91 
Q 1459 -91 1007 375 
Q 556 841 556 1753 
L 556 4666 
z
" transform="scale(0.015625)"/>
      <path id="DejaVuSans-21" d="M 678 3150 
L 678 3719 
L 4684 2266 
L 4684 1747 
L 678 294 
L 678 863 
L 3897 2003 
L 678 3150 
z
" transform="scale(0.015625)"/>
      <path id="DejaVuSans-18" d="M 691 4666 
L 3169 4666 
L 3169 4134 
L 1269 4134 
L 1269 2991 
Q 1406 3038 1543 3061 
Q 1681 3084 1819 3084 
Q 2600 3084 3056 2656 
Q 3513 2228 3513 1497 
Q 3513 744 3044 326 
Q 2575 -91 1722 -91 
Q 1428 -91 1123 -41 
Q 819 9 494 109 
L 494 744 
Q 775 591 1075 516 
Q 1375 441 1709 441 
Q 2250 441 2565 725 
Q 2881 1009 2881 1497 
Q 2881 1984 2565 2268 
Q 2250 2553 1709 2553 
Q 1456 2553 1204 2497 
Q 953 2441 691 2322 
L 691 4666 
z
" transform="scale(0.015625)"/>
     </defs>
     <use xlink:href="#DejaVuSans-2c"/>
     <use xlink:href="#DejaVuSans-52" transform="translate(29.5 0)"/>
     <use xlink:href="#DejaVuSans-38" transform="translate(90.6875 0)"/>
     <use xlink:href="#DejaVuSans-3" transform="translate(163.875 0)"/>
     <use xlink:href="#DejaVuSans-21" transform="translate(195.65625 0)"/>
     <use xlink:href="#DejaVuSans-3" transform="translate(279.453125 0)"/>
     <use xlink:href="#DejaVuSans-13" transform="translate(311.234375 0)"/>
     <use xlink:href="#DejaVuSans-f" transform="translate(374.859375 0)"/>
     <use xlink:href="#DejaVuSans-18" transform="translate(406.640625 0)"/>
     <use xlink:href="#DejaVuSans-13" transform="translate(470.265625 0)"/>
    </g>
   </g>
   <g id="text_7">
    <!-- Rodada 2 -->
    <g style="fill: #172033" transform="translate(75.53 137.471807) scale(0.16 -0.16)">
     <use xlink:href="#DejaVuSans-35"/>
     <use xlink:href="#DejaVuSans-52" transform="translate(65 0)"/>
     <use xlink:href="#DejaVuSans-47" transform="translate(126.1875 0)"/>
     <use xlink:href="#DejaVuSans-44" transform="translate(189.671875 0)"/>
     <use xlink:href="#DejaVuSans-47" transform="translate(250.953125 0)"/>
     <use xlink:href="#DejaVuSans-44" transform="translate(314.4375 0)"/>
     <use xlink:href="#DejaVuSans-3" transform="translate(375.71875 0)"/>
     <use xlink:href="#DejaVuSans-15" transform="translate(407.5 0)"/>
    </g>
    <!-- 100k imagens -->
    <g style="fill: #172033" transform="translate(56.61875 156.676182) scale(0.16 -0.16)">
     <defs>
      <path id="DejaVuSans-4e" d="M 581 4863 
L 1159 4863 
L 1159 1991 
L 2875 3500 
L 3609 3500 
L 1753 1863 
L 3688 0 
L 2938 0 
L 1159 1709 
L 1159 0 
L 581 0 
L 581 4863 
z
" transform="scale(0.015625)"/>
     </defs>
     <use xlink:href="#DejaVuSans-14"/>
     <use xlink:href="#DejaVuSans-13" transform="translate(63.625 0)"/>
     <use xlink:href="#DejaVuSans-13" transform="translate(127.25 0)"/>
     <use xlink:href="#DejaVuSans-4e" transform="translate(190.875 0)"/>
     <use xlink:href="#DejaVuSans-3" transform="translate(248.78125 0)"/>
     <use xlink:href="#DejaVuSans-4c" transform="translate(280.5625 0)"/>
     <use xlink:href="#DejaVuSans-50" transform="translate(308.34375 0)"/>
     <use xlink:href="#DejaVuSans-44" transform="translate(405.75 0)"/>
     <use xlink:href="#DejaVuSans-4a" transform="translate(467.03125 0)"/>
     <use xlink:href="#DejaVuSans-48" transform="translate(530.515625 0)"/>
     <use xlink:href="#DejaVuSans-51" transform="translate(592.046875 0)"/>
     <use xlink:href="#DejaVuSans-56" transform="translate(655.421875 0)"/>
    </g>
   </g>
  </g>
 </g>
 <defs>
  <clipPath id="pb697f6cbc2">
   <rect x="7.2" y="7.2" width="781.2" height="282.744"/>
  </clipPath>
 </defs>
</svg>
